<svg id="ATG" xmlns="http://www.w3.org/2000/svg" xmlns:xlink="http://www.w3.org/1999/xlink" viewBox="0 0 1517.82255 799.9391">
  <defs>
    <clipPath id="clip-path">
      <polygon points="378.146 2.502 152.87 541.084 1244.574 541.084 1469.827 2.502 378.146 2.502" fill="#006bab"/>
    </clipPath>
    <linearGradient id="Namnlös_övertoning_13" data-name="Namnlös övertoning 13" x1="1177.44707" y1="-55.51529" x2="972.28699" y2="432.63994" gradientUnits="userSpaceOnUse">
      <stop offset="0" stop-color="#12406d"/>
      <stop offset="0.15323" stop-color="#143b68"/>
      <stop offset="0.76867" stop-color="#1b2c56"/>
    </linearGradient>
    <linearGradient id="Namnlös_övertoning_4" data-name="Namnlös övertoning 4" x1="149.06066" y1="410.16268" x2="1246.16595" y2="410.16268" gradientUnits="userSpaceOnUse">
      <stop offset="0.15059" stop-color="#11406d"/>
      <stop offset="0.5679" stop-color="#143158"/>
      <stop offset="1" stop-color="#172546"/>
    </linearGradient>
    <linearGradient id="Namnlös_övertoning_64" data-name="Namnlös övertoning 64" x1="811.12974" y1="551.59292" x2="811.12974" y2="-15.93981" gradientUnits="userSpaceOnUse">
      <stop offset="0" stop-color="#4b84be"/>
      <stop offset="0.19754" stop-color="#5289c1"/>
      <stop offset="0.47799" stop-color="#6498c8"/>
      <stop offset="0.80641" stop-color="#83b1d4"/>
      <stop offset="1" stop-color="#98c2dd"/>
    </linearGradient>
    <linearGradient id="Namnlös_övertoning_54" data-name="Namnlös övertoning 54" x1="376.42318" y1="138.3337" x2="1473.19943" y2="138.3337" gradientUnits="userSpaceOnUse">
      <stop offset="0.00755" stop-color="#fff" stop-opacity="0.15"/>
      <stop offset="0.08692" stop-color="#dde8f3" stop-opacity="0.3034"/>
      <stop offset="0.21594" stop-color="#adc8e2" stop-opacity="0.51583"/>
      <stop offset="0.35095" stop-color="#86aed4" stop-opacity="0.69165"/>
      <stop offset="0.49145" stop-color="#679aca" stop-opacity="0.82778"/>
      <stop offset="0.63975" stop-color="#528bc2" stop-opacity="0.92439"/>
      <stop offset="0.80115" stop-color="#4583bd" stop-opacity="0.98171"/>
      <stop offset="1" stop-color="#4180bc"/>
    </linearGradient>
    <linearGradient id="Namnlös_övertoning_2" data-name="Namnlös övertoning 2" x1="1075.90086" y1="659.01583" x2="614.22901" y2="-19.58741" gradientUnits="userSpaceOnUse">
      <stop offset="0.051" stop-color="#203362"/>
      <stop offset="0.28116" stop-color="#17497f"/>
      <stop offset="0.57154" stop-color="#0d5f9c"/>
      <stop offset="0.82141" stop-color="#076daf"/>
      <stop offset="1" stop-color="#0572b5"/>
    </linearGradient>
    <linearGradient id="Namnlös_övertoning_71" data-name="Namnlös övertoning 71" x1="4873.1187" y1="-2946.54279" x2="5054.87382" y2="-2447.1747" gradientTransform="matrix(-0.3843, 0.9232, 0.9232, 0.3843, 4955.83998, -3312.46987)" gradientUnits="userSpaceOnUse">
      <stop offset="0" stop-color="#fff" stop-opacity="0.4"/>
      <stop offset="0.1548" stop-color="#fff" stop-opacity="0.26809"/>
      <stop offset="0.32602" stop-color="#fff" stop-opacity="0.15145"/>
      <stop offset="0.49493" stop-color="#fff" stop-opacity="0.06749"/>
      <stop offset="0.65876" stop-color="#fff" stop-opacity="0.01703"/>
      <stop offset="0.81169" stop-color="#fff" stop-opacity="0"/>
    </linearGradient>
  </defs>
  <title>ATG_primary_Fovanta_dig_mer_RGB</title>
  <g>
    <g>
      <path d="M727.5778,708.20592c7.13211-18.29624,10.23319-22.32749,27.28919-22.32749h26.97935l12.40381,112.1031H764.48006l-2.32558-22.17259H732.07406l-7.59733,22.17259H693.17127ZM758.123,734.41c-.9299-10.69863-2.32552-22.63776-2.48047-27.90952-1.39562,5.42665-5.42714,16.12528-9.30323,27.75441l-5.58209,16.59045h18.76146Z"/>
      <path d="M960.41012,685.88815h31.47555L976.07045,797.99126H944.74979Z"/>
      <path d="M516.42046,685.87721H555.339l8.9929,29.925c5.27176,17.83128,10.23373,36.28236,11.16418,41.08917l9.92335-71.01421h29.925l-15.81522,112.1031H582.16291c-17.9859,0-20.15653-3.5663-24.65328-17.98618l-17.36579-57.36961c-.93039,10.69868-3.256,29.46009-5.42714,44.03513l-4.18642,31.32066H500.76013Z"/>
      <path d="M1251.5024,797.98058h-29.77009l5.11681-36.90275c2.32558-16.90051,4.03153-29.7701,5.58209-39.22827-3.25651,9.7685-6.82232,18.7614-15.97066,42.17451l-13.17937,33.95651h-11.6288c-9.30329,0-11.00869-2.481-11.62935-8.68317l-2.7908-25.27334c-1.86085-17.056-4.03147-36.74732-4.65159-43.25986-.62012,6.82233-2.94624,25.42884-5.11687,40.31362l-5.11686,36.90275h-29.77009l15.66032-112.10333h43.2598l3.41141,28.52992c2.17068,18.60651,3.10107,28.21958,3.5663,37.52287,2.63585-8.37284,6.512-19.0718,13.17937-37.21254l10.54346-28.84025h45.12228Z"/>
      <path d="M214.80022,685.8902H254.9824c31.47562,0,45.12015,12.2492,42.63974,39.22827-1.706,17.6764-12.09458,26.359-25.58428,30.54543l20.09463,42.29517h-23.3506c-8.99295,0-10.54346-.93045-13.17937-7.44239l-12.893-31.28648H235.8877l-5.42715,38.72887H199.13989Zm27.90925,24.96334-3.41086,25.11851h7.45628c13.18949,0,18.61614-1.08534,19.85637-11.62886,1.24018-11.784-3.87662-13.48965-16.74567-13.48965Z"/>
      <path d="M1377.26379,685.8902H1417.446c31.47562,0,45.12015,12.2492,42.63974,39.22827-1.706,17.6764-12.09458,26.359-25.58428,30.54543l20.09463,42.29517h-23.3506c-8.993,0-10.54346-.93045-13.17937-7.44239L1405.173,759.2302h-6.82177l-5.42715,38.72887h-31.32066Zm27.90925,24.96334-3.41086,25.11851h7.45628c13.18949,0,18.61614-1.08534,19.85637-11.62886,1.24018-11.784-3.87662-13.48965-16.74567-13.48965Z"/>
      <path d="M1284.50128,685.8148h75.66579l-2.63585,19.537c-.62039,4.4962-1.39567,5.42665-7.1326,5.42665H1312.4108l-2.63585,18.45107h40.93373l-2.7908,19.537c-.62039,4.4962-1.24051,5.42665-6.97744,5.42665h-34.57668l-2.791,18.76146h46.0506l-1.70546,12.5592c-1.70568,11.62935-4.9617,12.40436-19.53669,12.40436H1268.841Z"/>
      <path d="M310.94141,685.88632h30.54543l7.13261,81.868,28.37447-76.131c1.55051-4.031,2.01574-5.73693,8.83806-5.73693H412.3926l-37.2593,88.22505c-8.06278,19.07174-10.85352,23.87827-28.52964,23.87827H321.79521Z"/>
      <path d="M852.798,685.88069h44.81031c32.716,0,41.709,13.02448,41.709,35.66251a173.42589,173.42589,0,0,1-1.7054,20.46687c-5.11687,36.74731-10.38862,55.97394-53.49325,55.97394H837.13763Zm31.47555,87.13976c17.52117,0,18.45135-7.90767,21.86248-31.01038a136.375,136.375,0,0,0,1.86062-17.831c0-9.45818-3.566-13.33481-15.81522-13.33481H880.70754l-8.838,62.17615Z"/>
      <path d="M15.66033,685.88814H90.24084l-2.63618,19.537c-.62006,4.49621-1.39535,5.42665-7.13233,5.42665H43.56985l-3.10107,22.01743H81.86773l-1.86062,13.33476c-1.70542,11.6288-5.42662,11.6288-19.53642,11.6288H36.90248l-5.58182,40.15872H0Z"/>
      <path d="M1044.907,738.484c1.24049-8.21794,2.32582-9.92338,9.61332-9.92338h39.07313l-1.70544,11.784c-6.047,41.39894-10.38859,59.38483-51.63264,59.38483-35.04187,0-43.87992-13.95436-43.87992-35.81688a168.21309,168.21309,0,0,1,2.01576-22.01741c5.11658-36.90273,8.52773-57.98971,55.974-57.98971,31.78589,0,40.62394,4.18642,40.62394,16.74566a52.23693,52.23693,0,0,1-1.24049,10.07828h-36.59241c-21.55246,0-23.41306,2.481-27.28942,31.16577-1.08533,8.37284-1.8606,14.57475-1.8606,19.07148,0,10.07828,3.41114,12.2492,13.64457,12.2492,14.73017,0,14.88507-1.70571,17.6761-19.69186h-16.74566Z"/>
      <path d="M421.155,708.22086c7.13211-18.29623,10.23319-22.32748,27.28919-22.32748h26.97935l12.40381,112.1031H458.05724l-2.32558-22.1726H425.65124l-7.59734,22.1726H386.74845Zm30.54516,26.20407c-.92991-10.69863-2.32552-22.63777-2.48047-27.90952-1.39562,5.42665-5.42714,16.12528-9.30323,27.75441l-5.58209,16.59045h18.76146Z"/>
      <path d="M424.116,667.1328c1.39565-11.47392,3.56631-12.094,15.04023-12.094,10.07827,0,13.33479.62011,13.33479,6.97718a34.60617,34.60617,0,0,1-.46522,5.11685c-1.70544,12.24919-3.7212,13.17936-15.35055,13.17936-10.07827,0-13.02446-.93017-13.02446-7.75245A40.34124,40.34124,0,0,1,424.116,667.1328Zm34.57719,0c1.39512-11.47392,3.56578-12.094,15.0397-12.094,10.0788,0,13.33478.62011,13.33478,6.97718a34.53392,34.53392,0,0,1-.46521,5.11685c-1.70544,12.24919-3.7212,13.17936-15.35,13.17936-10.0788,0-13.02446-.93017-13.02446-7.75245A40.25207,40.25207,0,0,1,458.69322,667.1328Z"/>
      <path d="M95.72923,742.10481c5.1166-37.36765,9.61335-57.98968,54.5786-57.98968,35.197,0,44.19,13.64454,44.19,35.972a168.58118,168.58118,0,0,1-1.86062,22.01765c-5.11682,36.59242-9.61329,57.83429-53.80326,57.83429-36.28236,0-44.96526-13.79943-44.96526-35.81686A168.57726,168.57726,0,0,1,95.72923,742.10481ZM139.764,773.11519c16.59078,0,17.83128-5.89188,21.24242-31.01038,1.08534-8.37278,1.86062-15.04022,1.86062-19.22663,0-9.14812-3.25629-11.93914-14.41988-11.93914-16.59077,0-17.52095,6.047-21.08725,31.16577-1.08529,8.37283-1.86057,14.57477-1.86057,19.22641C125.49938,770.47934,128.75535,773.11519,139.764,773.11519Z"/>
      <path d="M123.18945,667.42684c1.39565-11.47392,3.5663-12.094,15.04022-12.094,10.07827,0,13.33479.62012,13.33479,6.97719a34.60617,34.60617,0,0,1-.46522,5.11685c-1.70544,12.24919-3.7212,13.17936-15.35055,13.17936-10.07827,0-13.02446-.93017-13.02446-7.75246A40.33971,40.33971,0,0,1,123.18945,667.42684Zm34.57719,0c1.39511-11.47392,3.56577-12.094,15.03969-12.094,10.0788,0,13.33478.62012,13.33478,6.97719a34.53392,34.53392,0,0,1-.46521,5.11685c-1.70544,12.24919-3.7212,13.17936-15.35,13.17936-10.0788,0-13.02446-.93017-13.02446-7.75246A40.25055,40.25055,0,0,1,157.76664,667.42684Z"/>
      <path d="M651.386,710.83725H623.47726l.62011-4.34131c2.7913-20.00164,5.737-20.62176,25.8935-20.62176h62.9506l-2.79076,20.31144c-.62011,4.03152-2.17066,4.65163-8.52773,4.65163H682.86209l-12.24946,87.13893H639.29249Z"/>
    </g>
    <path d="M1476.283,688.99389h-7.482c-.29433,0-.41161-.11729-.41161-.35186v-2.53384c0-.177.11728-.35408.41161-.35408h18.67741a.311.311,0,0,1,.35407.35408V688.642c0,.23457-.05975.35186-.35407.35186h-7.482v21.50779a.31257.31257,0,0,1-.35408.35186h-3.0052a.31169.31169,0,0,1-.35407-.35186Zm16.792-2.8857c0-.177.1195-.35408.41383-.35408h3.82842a1.03006,1.03006,0,0,1,1.00248.70815l3.83064,7.95339a64.41983,64.41983,0,0,1,3.35706,8.24993h.11729a57.6388,57.6388,0,0,1,3.419-8.30968l3.6536-7.89364a1.0065,1.0065,0,0,1,1.06-.70815h3.71114a.311.311,0,0,1,.35407.35408v24.39349c0,.23458-.05975.35186-.35407.35186h-2.76842c-.23679,0-.41382-.11728-.41382-.35186V699.189c0-4.479,0-7.3072.1195-9.30993h-.177c-.53111,1.53137-1.53137,3.94792-3.18224,7.482l-3.53632,7.48425a.72477.72477,0,0,1-.82322.5289h-2.41656a.79284.79284,0,0,1-.883-.5289l-3.53631-7.48425a56.95248,56.95248,0,0,1-3.23978-7.482h-.177c.177,1.943.177,4.83089.177,9.30993v11.31267c0,.23458-.177.35186-.41383.35186h-2.70866c-.29433,0-.41383-.11728-.41383-.35186Z"/>
  </g>
  <g>
    <g>
      <polygon points="378.146 2.502 152.87 541.084 1244.574 541.084 1469.827 2.502 378.146 2.502" fill="#006bab"/>
      <g clip-path="url(#clip-path)">
        <polygon points="1440.888 22.463 717.296 276.667 1232.251 521.123 1246.166 543.67 1473.199 0.171 1440.888 22.463" fill="url(#Namnlös_övertoning_13)"/>
        <path d="M1232.247,521.11109,717.29248,276.65564,184.0251,521.12283,149.06066,543.52l1097.10529.14972Z" fill="url(#Namnlös_övertoning_4)"/>
        <polygon points="376.423 0 149.061 543.52 184.025 521.123 717.296 276.667 1440.888 22.463 1473.199 0.171 376.423 0" fill="url(#Namnlös_övertoning_64)"/>
        <polygon points="376.423 0 391.893 22.456 717.284 276.667 1440.888 22.463 1473.199 0.171 376.423 0" fill="url(#Namnlös_övertoning_54)"/>
      </g>
    </g>
    <polygon points="1440.901 22.463 391.893 22.456 184.025 521.123 1232.251 521.123 1440.901 22.463" fill="url(#Namnlös_övertoning_2)"/>
    <path d="M436.33667,174.656l-177.763,246.50934H368.02816l35.95375-52.53514H504.19945l-7.4445,52.53514h95.45693l41.168-299.05235h-87.143C483.62688,122.113,465.23812,134.3874,436.33667,174.656ZM515.1508,295.95329H453.70243l74.58432-109.03862h3.4911Z" fill="#ffde00"/>
    <path d="M1156.16251,199.61984h130.04965c12.68962-56.04987-.44633-81.88312-119.544-81.88312-125.65091,0-158.93574,20.14258-211.47088,145.36961-40.72223,97.195-35.90808,162.44319,106.40041,162.44319,131.34139,0,154.10643-38.52267,206.64866-166.3887l10.95213-26.70977h-116.468c-38.9686,0-46.85174,3.4919-63.92533,42.47606l-13.13595,29.763H1143.465c-14.44325,38.09977-24.07943,43.36045-59.541,43.36045-45.10639,0-53.41934-10.52136-22.32639-84.94424C1087.86876,200.48139,1102.75066,199.61984,1156.16251,199.61984Z" fill="#ffde00"/>
    <path d="M958.25757,184.28433,984.96734,122.113H752.024c-57.35717,0-67.41625,5.69146-91.0649,60.43325l-9.637,22.32639H760.34574L668.39567,421.16536H775.23473l91.51161-216.29271h52.54282C946.43758,204.87265,952.12038,198.72757,958.25757,184.28433Z" fill="#ffde00"/>
    <g>
      <path d="M1330.5923,118.57652c-15.58732,0-24.17971,10.54015-24.17971,24.18369,0,13.64421,8.59239,24.179,24.17971,24.179,15.582,0,24.185-10.53484,24.185-24.179C1354.77731,129.11667,1346.1743,118.57652,1330.5923,118.57652Zm0,44.87589c-14.096,0-20.36913-9.50524-20.36913-20.6922,0-11.12725,6.27314-20.6975,20.36913-20.6975s20.37443,9.57025,20.37443,20.6975C1350.96673,153.94717,1344.68828,163.45241,1330.5923,163.45241Z" fill="#ffde00"/>
      <path d="M1336.48331,147.55131c-.89692-1.31487-1.555-2.27149-2.44663-2.511v-.05971c4.474-.89626,6.26784-3.40259,6.26784-7.70675,0-5.44521-2.74915-8.25008-10.5773-8.25008a56.5757,56.5757,0,0,0-7.17006.59773c-.30251.0597-.36089.23882-.36089.47831v24.80994a.31873.31873,0,0,0,.36089.3589h3.58238c.23882,0,.35027-.11941.35027-.3589v-9.57025h3.83182l5.92286,9.39113c.23882.41861.30251.538.83854.538h3.87958c.41927,0,.47765-.29919.30251-.59772Zm-6.69771-5.79416h-3.29579V132.9644c.483-.0597,2.10166-.11941,3.29579-.11941,4.90387,0,5.86448.23883,5.86448,4.42888C1335.65008,141.45862,1334.63109,141.75715,1329.7856,141.75715Z" fill="#ffde00"/>
    </g>
    <polygon points="391.893 22.456 184.026 521.122 655.232 521.17 1015.278 22.456 391.893 22.456" fill="url(#Namnlös_övertoning_71)"/>
  </g>
</svg>
